<?xml version="1.0" encoding="utf-8"?>
<!-- Generator: Adobe Illustrator 21.0.0, SVG Export Plug-In . SVG Version: 6.00 Build 0)  -->
<svg version="1.1" id="Layer_1" xmlns="http://www.w3.org/2000/svg" xmlns:xlink="http://www.w3.org/1999/xlink" x="0px" y="0px"
	 viewBox="0 0 111 24" style="enable-background:new 0 0 111 24;" xml:space="preserve">
<style type="text/css">
	.st0{fill:#FFFFFF;}
</style>
<g>
	<path class="st0" d="M10.9,3.1c2.3,0,4.1,0.4,5.4,1.3c1.3,0.9,1.9,2.2,1.9,4c0,1-0.2,1.8-0.5,2.5c-0.3,0.7-0.8,1.2-1.5,1.7
		s-1.4,0.7-2.4,0.9c-0.9,0.2-2,0.3-3.1,0.3H8.8v6.2H6.5V3.5c0.7-0.2,1.4-0.3,2.2-0.3S10.2,3.1,10.9,3.1z M11.1,5.1
		c-1,0-1.8,0-2.3,0.1v6.5h1.8c0.8,0,1.5-0.1,2.2-0.2c0.6-0.1,1.2-0.3,1.6-0.5c0.4-0.2,0.8-0.6,1-1c0.2-0.4,0.4-1,0.4-1.7
		c0-0.6-0.1-1.2-0.4-1.6c-0.2-0.4-0.6-0.7-1-1c-0.4-0.2-0.9-0.4-1.5-0.5C12.3,5.2,11.7,5.1,11.1,5.1z"/>
	<path class="st0" d="M19.5,13.7c0-1.1,0.2-2.1,0.5-2.9c0.3-0.8,0.7-1.5,1.3-2.1c0.5-0.5,1.1-1,1.8-1.2s1.4-0.4,2.1-0.4
		c1.7,0,3,0.5,3.9,1.6c0.9,1,1.3,2.6,1.3,4.8c0,0.1,0,0.2,0,0.4s0,0.3,0,0.4h-8.5c0.1,1.3,0.5,2.3,1.1,3c0.7,0.7,1.7,1,3.1,1
		c0.8,0,1.4-0.1,2-0.2s0.9-0.3,1.2-0.4l0.3,1.9c-0.3,0.1-0.7,0.3-1.4,0.5c-0.7,0.2-1.5,0.2-2.3,0.2c-1.1,0-2-0.2-2.8-0.5
		c-0.8-0.3-1.4-0.8-2-1.4s-0.9-1.3-1.1-2.1C19.6,15.5,19.5,14.6,19.5,13.7z M28,12.4c0-1-0.2-1.8-0.8-2.5c-0.5-0.6-1.2-1-2.1-1
		c-0.5,0-1,0.1-1.4,0.3c-0.4,0.2-0.7,0.5-1,0.8c-0.3,0.3-0.5,0.7-0.6,1.1c-0.2,0.4-0.3,0.8-0.3,1.3H28z"/>
	<path class="st0" d="M35.7,7.4h4.7v1.9h-4.7V15c0,0.6,0,1.1,0.1,1.5c0.1,0.4,0.2,0.7,0.4,1c0.2,0.2,0.4,0.4,0.7,0.5
		c0.3,0.1,0.6,0.1,1,0.1c0.7,0,1.2-0.1,1.6-0.2c0.4-0.2,0.7-0.3,0.9-0.3l0.4,1.8c-0.2,0.1-0.6,0.3-1.2,0.4s-1.2,0.3-1.9,0.3
		c-0.8,0-1.5-0.1-2.1-0.3c-0.6-0.2-1-0.5-1.3-1c-0.3-0.4-0.6-1-0.7-1.6c-0.1-0.6-0.2-1.4-0.2-2.2V3.9l2.2-0.4V7.4z"/>
	<path class="st0" d="M43.4,19.9V3.3h10v2h-7.7v5h6.8v2h-6.8v7.7H43.4z"/>
	<path class="st0" d="M57.2,5.2c-0.4,0-0.7-0.1-1-0.4c-0.3-0.3-0.4-0.6-0.4-1.1c0-0.4,0.1-0.8,0.4-1.1c0.3-0.3,0.6-0.4,1-0.4
		s0.7,0.1,1,0.4c0.3,0.3,0.4,0.6,0.4,1.1c0,0.4-0.1,0.8-0.4,1.1C58,5,57.6,5.2,57.2,5.2z M58.4,19.9h-2.2V7.4h2.2V19.9z"/>
	<path class="st0" d="M61.5,13.7c0-1.1,0.2-2.1,0.5-2.9c0.3-0.8,0.7-1.5,1.3-2.1c0.5-0.5,1.1-1,1.8-1.2s1.4-0.4,2.1-0.4
		c1.7,0,3,0.5,3.9,1.6c0.9,1,1.3,2.6,1.3,4.8c0,0.1,0,0.2,0,0.4s0,0.3,0,0.4h-8.5c0.1,1.3,0.5,2.3,1.1,3s1.7,1,3.1,1
		c0.8,0,1.4-0.1,2-0.2c0.5-0.1,0.9-0.3,1.2-0.4l0.3,1.9c-0.3,0.1-0.7,0.3-1.4,0.5c-0.7,0.2-1.5,0.2-2.3,0.2c-1.1,0-2-0.2-2.8-0.5
		c-0.8-0.3-1.4-0.8-2-1.4c-0.5-0.6-0.9-1.3-1.1-2.1S61.5,14.6,61.5,13.7z M70.1,12.4c0-1-0.2-1.8-0.8-2.5c-0.5-0.6-1.2-1-2.1-1
		c-0.5,0-1,0.1-1.4,0.3c-0.4,0.2-0.7,0.5-1,0.8c-0.3,0.3-0.5,0.7-0.6,1.1c-0.2,0.4-0.3,0.8-0.3,1.3H70.1z"/>
	<path class="st0" d="M78.5,18.3c0.9,0,1.6-0.1,2-0.4c0.4-0.2,0.7-0.6,0.7-1.2c0-0.5-0.2-1-0.6-1.3c-0.4-0.3-1.1-0.7-2.1-1.1
		c-0.5-0.2-0.9-0.4-1.4-0.6c-0.4-0.2-0.8-0.4-1.1-0.7c-0.3-0.3-0.6-0.6-0.8-1c-0.2-0.4-0.3-0.9-0.3-1.4c0-1.1,0.4-2,1.2-2.6
		s1.9-1,3.3-1c0.4,0,0.7,0,1.1,0.1c0.4,0,0.7,0.1,1,0.1s0.6,0.1,0.8,0.2c0.2,0.1,0.4,0.1,0.5,0.2l-0.4,1.9c-0.2-0.1-0.6-0.3-1.1-0.4
		C80.7,9,80.1,9,79.4,9c-0.6,0-1.2,0.1-1.6,0.4s-0.7,0.6-0.7,1.2c0,0.3,0.1,0.5,0.2,0.7c0.1,0.2,0.3,0.4,0.5,0.6
		c0.2,0.2,0.5,0.3,0.8,0.5c0.3,0.1,0.7,0.3,1.2,0.5c0.6,0.2,1.1,0.4,1.6,0.7s0.9,0.5,1.2,0.8s0.6,0.6,0.8,1s0.3,0.9,0.3,1.5
		c0,1.2-0.4,2-1.3,2.6c-0.9,0.6-2.1,0.9-3.7,0.9c-1.1,0-2-0.1-2.6-0.3c-0.6-0.2-1-0.3-1.3-0.4l0.4-1.9c0.3,0.1,0.7,0.2,1.2,0.4
		C76.8,18.2,77.6,18.3,78.5,18.3z"/>
	<path class="st0" d="M88.4,7.4h4.7v1.9h-4.7V15c0,0.6,0,1.1,0.1,1.5c0.1,0.4,0.2,0.7,0.4,1c0.2,0.2,0.4,0.4,0.7,0.5s0.6,0.1,1,0.1
		c0.7,0,1.2-0.1,1.6-0.2c0.4-0.2,0.7-0.3,0.9-0.3l0.4,1.8c-0.2,0.1-0.6,0.3-1.2,0.4c-0.6,0.2-1.2,0.3-1.9,0.3
		c-0.8,0-1.5-0.1-2.1-0.3c-0.6-0.2-1-0.5-1.3-1c-0.3-0.4-0.6-1-0.7-1.6c-0.1-0.6-0.2-1.4-0.2-2.2V3.9l2.2-0.4V7.4z"/>
	<path class="st0" d="M100,7.1c0.9,0,1.7,0.1,2.3,0.3s1.1,0.6,1.5,1c0.4,0.4,0.6,0.9,0.8,1.5c0.2,0.6,0.2,1.2,0.2,1.9v7.8
		c-0.2,0-0.5,0.1-0.8,0.1c-0.3,0.1-0.7,0.1-1.2,0.2c-0.4,0-0.9,0.1-1.4,0.1s-1,0.1-1.5,0.1c-0.7,0-1.4-0.1-1.9-0.2
		c-0.6-0.1-1.1-0.4-1.5-0.7c-0.4-0.3-0.8-0.7-1-1.2c-0.2-0.5-0.4-1.1-0.4-1.8c0-0.7,0.1-1.3,0.4-1.8c0.3-0.5,0.7-0.9,1.1-1.2
		c0.5-0.3,1-0.5,1.7-0.7c0.6-0.1,1.3-0.2,2-0.2c0.2,0,0.5,0,0.7,0c0.2,0,0.5,0.1,0.7,0.1c0.2,0,0.4,0.1,0.6,0.1
		c0.2,0,0.3,0.1,0.3,0.1V12c0-0.4,0-0.7-0.1-1.1c-0.1-0.4-0.2-0.7-0.4-1c-0.2-0.3-0.5-0.5-0.9-0.7S100.4,9,99.8,9
		c-0.7,0-1.4,0.1-1.9,0.2s-1,0.2-1.2,0.3l-0.3-1.8c0.3-0.1,0.8-0.3,1.4-0.4C98.5,7.2,99.2,7.1,100,7.1z M100.2,18.3c0.5,0,1,0,1.4,0
		c0.4,0,0.7-0.1,1-0.1v-3.7c-0.2-0.1-0.4-0.1-0.8-0.2c-0.4-0.1-0.8-0.1-1.3-0.1c-0.3,0-0.7,0-1.1,0.1s-0.7,0.1-1,0.3
		c-0.3,0.2-0.6,0.4-0.8,0.6c-0.2,0.3-0.3,0.6-0.3,1c0,0.8,0.3,1.4,0.8,1.7C98.6,18.1,99.3,18.3,100.2,18.3z"/>
</g>
</svg>
